PathFileType	4	(x/y/z)	S08_M20_T13
DataRate	CameraRate	NumFrames	NumMarkers	Units	OrigDataRate	OrigDataStartFrame	OrigNumFrames
240	240	8	51	mm	240	263	524
Frame#	Time	Sternum			R.Acromium			L.Acromium			Top.Head			R.ASIS			L.ASIS			R.PSIS			L.PSIS			R.Great.Tro			L.Great.Tro			R.Iliac.Crest			L.Iliac.Crest			V.Sacral			R.Thigh.Upper.Post			R.Thigh.Lower.Ant			R.Thigh.Lower.Post			R.Thigh.Upper.Ant			R.Knee.Lat			R.Knee.Med			R.Shank.Upper.Post			R.Shank.Lower.Ant			R.Shank.Lower.Post			R.Shank.Upper.Ant			R.Ankle.Lat			R.Ankle.Med			R.Heel.Upper			R.Heel.Med			R.Heel.Lat			R.Toe.Lat			R.Toe.Med			R.Toe.Tip			L.Thigh.Upper.Post			L.Thigh.Lower.Ant			L.Thigh.Lower.Post			L.Thigh.Upper.Ant			L.Knee.Lat			L.Knee.Med			L.Shank.Upper.Post			L.Shank.Lower.Ant			L.Shank.Lower.Post			L.Shank.Upper.Ant			L.Ankle.Lat			L.Ankle.Med			L.Heel.Upper			L.Heel.Med			L.Heel.Lat			L.Toe.Lat			L.Toe.Med			L.Toe.Tip			Cervical.Spine			Back			
		X1	Y1	Z1	X2	Y2	Z2	X3	Y3	Z3	X4	Y4	Z4	X5	Y5	Z5	X6	Y6	Z6	X7	Y7	Z7	X8	Y8	Z8	X9	Y9	Z9	X10	Y10	Z10	X11	Y11	Z11	X12	Y12	Z12	X13	Y13	Z13	X14	Y14	Z14	X15	Y15	Z15	X16	Y16	Z16	X17	Y17	Z17	X18	Y18	Z18	X19	Y19	Z19	X20	Y20	Z20	X21	Y21	Z21	X22	Y22	Z22	X23	Y23	Z23	X24	Y24	Z24	X25	Y25	Z25	X26	Y26	Z26	X27	Y27	Z27	X28	Y28	Z28	X29	Y29	Z29	X30	Y30	Z30	X31	Y31	Z31	X32	Y32	Z32	X33	Y33	Z33	X34	Y34	Z34	X35	Y35	Z35	X36	Y36	Z36	X37	Y37	Z37	X38	Y38	Z38	X39	Y39	Z39	X40	Y40	Z40	X41	Y41	Z41	X42	Y42	Z42	X43	Y43	Z43	X44	Y44	Z44	X45	Y45	Z45	X46	Y46	Z46	X47	Y47	Z47	X48	Y48	Z48	X49	Y49	Z49	X50	Y50	Z50	X51	Y51	Z51	

263	1.0917	-167.12	1229.7	342.44	-271.37	1460.9	525.34	-296.44	1495.3	192.69	-247.87	1785.5	376.59	-181.94	1021.1	461.81	-174.14	1018.9	229.68	-381.42	1040.4	375.56	-374.01	1040.7	282.43	-257.81	911.7	528.53	-248.34	908.33	157.89	-280.45	1088.5	501.21	-272.18	1095.8	191.89	-393.93	999.24	328.54	-302.92	713.91	504.28	-237.25	608.99	465.47	-305.72	625.11	481.55	-226.01	700.88	490.86	-285.71	515.63	454.43	-311.72	526.78	329.11	-382.21	342.74	453.65	-331.99	273.51	427.12	-395.33	267.82	441.2	-318.59	348.93	440.86	-423.42	103.35	395.38	-393.09	121.58	316.86	-475.78	70.117	343.72	-463.52	43.484	316.65	-470.13	45.362	377.87	NaN	NaN	NaN	-277.62	46.272	301.69	-211.52	58.606	349.51	-158.62	709.32	167.93	-39.469	671.62	187.37	-100.99	639.58	183.05	-92.924	740.84	166.65	-45.978	563.6	198.53	-40.532	557.15	324.94	-136.75	410.26	183.34	-95.564	307.52	199.96	-159.26	340.31	193.49	-78.297	381.6	189.73	-186.35	168.14	194.02	-163.47	164.44	280.57	-246.87	148.12	241.33	-240.36	111.34	270.86	-243.74	120.91	206.96	-73.629	78.134	177.83	-56.101	75.191	291.92	10.173	84.165	245.22	-347.76	1524.4	359.06	-402.33	1241.3	360.62
264	1.0958	-162.39	1228.9	342.36	-266.32	1460.3	525.19	-291.51	1494.8	192.58	-242.75	1784.9	376.34	-177.5	1020.5	461.87	-169.34	1018.4	229.71	-376.83	1039.8	375.28	-369.29	1040.1	282.17	-253.75	911.25	528.5	-243.33	907.82	157.81	-276.04	1087.9	501.09	-267.32	1095.2	191.76	-389.26	998.62	328.28	-300.02	713.83	504.27	-234.89	608.53	465.54	-303.28	625.01	481.56	-223.21	700.37	490.89	-283.9	515.35	454.56	-309.72	526.61	329.18	-381.12	342.85	453.78	-331.17	273.39	427.19	-394.51	267.98	441.32	-317.47	348.75	440.94	-423.23	103.59	395.42	-392.82	121.74	316.87	-475.77	70.297	343.74	-463.44	43.613	316.67	-470.08	45.473	377.87	NaN	NaN	NaN	-277.47	46.213	301.71	-211.45	58.429	349.54	-153.18	708.92	167.96	-33.975	671.61	187.71	-95.395	639.34	183.22	-87.571	740.64	166.83	-39.883	563.49	198.92	-34.789	557.12	325.27	-127.47	407.84	183.69	-83.866	306.13	200.37	-148.31	337.41	193.82	-68.364	380.58	190.11	-171.15	164.52	194.38	-148.17	161.4	281.01	-231.24	142.9	241.66	-223.65	106.31	271.29	-227.33	115.68	207.41	-56.157	77.372	178.33	-38.535	75.082	292.43	27.451	85.708	245.72	-342.69	1523.9	358.98	-397.6	1240.8	360.56
265	1.1	-157.66	1228.1	342.27	-261.25	1459.7	525.03	-286.56	1494.1	192.46	-237.61	1784.3	376.09	-173.03	1019.9	461.92	-164.51	1017.9	229.73	-372.21	1039.1	375	-364.55	1039.4	281.91	-249.66	910.79	528.46	-238.31	907.26	157.73	-271.61	1087.3	500.97	-262.47	1094.6	191.64	-384.58	997.97	328.02	-297.07	713.73	504.27	-232.48	608.05	465.61	-300.79	624.9	481.57	-220.36	699.85	490.91	-282.04	515.07	454.69	-307.69	526.43	329.25	-380	342.96	453.92	-330.31	273.27	427.25	-393.66	268.13	441.44	-316.3	348.56	441.01	-423.02	103.83	395.45	-392.56	121.9	316.87	-475.75	70.479	343.77	-463.37	43.755	316.69	-470.03	45.591	377.87	NaN	NaN	NaN	-277.32	46.151	301.73	-211.4	58.249	349.56	-147.81	708.46	167.97	-28.566	671.49	188.03	-89.9	639.01	183.37	-82.28	740.35	167.01	-33.914	563.27	199.28	-29.147	556.98	325.57	-118.25	405.39	184.06	-72.23	304.76	200.79	-137.39	334.5	194.19	-58.521	379.56	190.49	-155.92	160.98	194.79	-132.83	158.46	281.47	-215.53	137.79	242.08	-206.83	101.42	271.79	-210.84	110.58	207.94	-38.741	76.769	178.82	-20.982	75.136	292.92	44.645	87.405	246.16	-337.6	1523.3	358.88	-392.86	1240.3	360.48
266	1.1042	-152.91	1227.3	342.16	-256.16	1459	524.86	-281.59	1493.5	192.33	-232.46	1783.6	375.83	-168.56	1019.2	461.96	-159.68	1017.3	229.74	-367.58	1038.4	374.72	-359.8	1038.7	281.65	-245.55	910.3	528.42	-233.3	906.67	157.64	-267.17	1086.7	500.85	-257.62	1093.9	191.5	-379.88	997.29	327.76	-294.07	713.6	504.28	-230.03	607.55	465.69	-298.25	624.77	481.6	-217.45	699.3	490.95	-280.13	514.76	454.81	-305.63	526.24	329.32	-378.82	343.06	454.06	-329.42	273.13	427.3	-392.79	268.29	441.56	-315.1	348.35	441.08	-422.8	104.08	395.48	-392.31	122.06	316.87	-475.71	70.667	343.79	-463.29	43.91	316.71	-469.99	45.717	377.87	NaN	NaN	NaN	-277.17	46.086	301.75	-211.34	58.066	349.58	-142.51	707.92	167.97	-23.241	671.26	188.33	-84.498	638.6	183.5	-77.048	739.97	167.16	-28.068	562.95	199.6	-23.603	556.73	325.86	-109.1	402.9	184.46	-60.661	303.43	201.2	-126.51	331.6	194.61	-48.77	378.52	190.87	-140.67	157.55	195.26	-117.45	155.63	281.98	-199.73	132.8	242.59	-189.91	96.677	272.38	-194.29	105.62	208.56	-21.393	76.33	179.29	-3.4543	75.36	293.38	61.744	89.262	246.53	-332.51	1522.7	358.78	-388.12	1239.8	360.4
267	1.1083	-148.15	1226.5	342.05	-251.06	1458.4	524.68	-276.61	1492.8	192.19	-227.3	1782.9	375.56	-164.06	1018.6	462	-154.82	1016.7	229.74	-362.93	1037.7	374.44	-355.03	1037.9	281.39	-241.41	909.8	528.38	-228.28	906.04	157.56	-262.71	1086	500.72	-252.78	1093.2	191.36	-375.17	996.58	327.51	-291.02	713.44	504.3	-227.52	607.04	465.76	-295.66	624.62	481.64	-214.5	698.73	490.98	-278.16	514.45	454.92	-303.54	526.04	329.39	-377.61	343.16	454.21	-328.49	272.99	427.33	-391.88	268.44	441.68	-313.85	348.14	441.14	-422.56	104.33	395.5	-392.05	122.23	316.87	-475.66	70.861	343.81	-463.21	44.079	316.71	-469.93	45.854	377.86	NaN	NaN	NaN	-277.02	46.017	301.78	-211.28	57.878	349.59	-137.28	707.32	167.95	-17.997	670.92	188.61	-79.188	638.1	183.61	-71.875	739.5	167.3	-22.345	562.52	199.9	-18.154	556.37	326.12	-100.01	400.38	184.9	-49.163	302.14	201.61	-115.67	328.7	195.06	-39.112	377.47	191.24	-125.42	154.22	195.77	-102.04	152.93	282.53	-183.86	127.93	243.17	-172.92	92.095	273.05	-177.67	100.81	209.27	-4.1233	76.061	179.76	14.037	75.762	293.82	78.737	91.282	246.85	-327.4	1522.1	358.66	-383.36	1239.2	360.3
268	1.1125	-143.38	1225.6	341.92	-245.94	1457.6	524.48	-271.61	1492.1	192.03	-222.12	1782.1	375.29	-159.55	1017.9	462.03	-149.94	1016	229.74	-358.26	1036.9	374.16	-350.24	1037.2	281.13	-237.24	909.27	528.33	-223.26	905.37	157.47	-258.24	1085.4	500.58	-247.93	1092.5	191.21	-370.43	995.86	327.25	-287.93	713.26	504.33	-224.98	606.51	465.82	-293.02	624.44	481.68	-211.5	698.14	491.02	-276.15	514.11	455.03	-301.41	525.83	329.46	-376.35	343.25	454.35	-327.54	272.84	427.36	-390.93	268.59	441.79	-312.57	347.91	441.19	-422.32	104.58	395.51	-391.8	122.4	316.85	-475.59	71.062	343.83	-463.13	44.261	316.71	-469.88	46.002	377.85	NaN	NaN	NaN	-276.87	45.944	301.8	-211.23	57.684	349.59	-132.12	706.65	167.9	-12.835	670.46	188.85	-73.968	637.53	183.7	-66.761	738.94	167.42	-16.742	561.99	200.17	-12.799	555.9	326.36	-90.996	397.83	185.35	-37.74	300.88	202.02	-104.87	325.81	195.55	-29.55	376.41	191.6	-110.16	151.02	196.34	-86.603	150.37	283.11	-167.92	123.21	243.84	-155.85	87.688	273.8	-161.01	96.168	210.06	13.059	75.965	180.22	31.476	76.349	294.24	95.611	93.469	247.12	-322.28	1521.4	358.54	-378.6	1238.6	360.19
269	1.1167	-138.6	1224.8	341.78	-240.81	1456.9	524.28	-266.6	1491.3	191.86	-216.93	1781.4	375.01	-155.01	1017.2	462.05	-145.03	1015.4	229.74	-353.57	1036.2	373.87	-345.43	1036.4	280.87	-233.04	908.71	528.28	-218.24	904.67	157.38	-253.74	1084.7	500.44	-243.08	1091.7	191.06	-365.67	995.11	327	-284.79	713.05	504.36	-222.38	605.96	465.89	-290.34	624.24	481.72	-208.45	697.53	491.06	-274.09	513.76	455.12	-299.25	525.61	329.52	-375.04	343.33	454.49	-326.55	272.68	427.37	-389.96	268.73	441.9	-311.24	347.68	441.22	-422.06	104.85	395.51	-391.55	122.57	316.83	-475.52	71.271	343.83	-463.05	44.456	316.7	-469.82	46.163	377.82	NaN	NaN	NaN	-276.72	45.868	301.82	-211.17	57.485	349.59	-127.03	705.91	167.85	-7.7534	669.9	189.07	-68.838	636.87	183.76	-61.704	738.29	167.52	-11.258	561.36	200.41	-7.5329	555.33	326.57	-82.042	395.25	185.83	-26.395	299.67	202.43	-94.113	322.95	196.08	-20.083	375.35	191.96	-94.915	147.94	196.97	-71.163	147.96	283.74	-151.93	118.64	244.58	-138.72	83.468	274.63	-144.32	91.696	210.93	30.142	76.049	180.67	48.85	77.129	294.65	112.35	95.826	247.34	-317.15	1520.8	358.41	-373.82	1238	360.07
270	1.1208	-133.8	1223.8	341.63	-235.66	1456.1	524.06	-261.58	1490.6	191.68	-211.73	1780.6	374.72	-150.46	1016.5	462.07	-140.1	1014.6	229.73	-348.85	1035.4	373.58	-340.59	1035.5	280.61	-228.82	908.14	528.23	-213.2	903.94	157.28	-249.22	1084	500.31	-238.21	1090.9	190.9	-360.89	994.34	326.74	-281.6	712.82	504.4	-219.74	605.4	465.94	-287.61	624.02	481.77	-205.35	696.89	491.1	-271.98	513.39	455.19	-297.06	525.39	329.57	-373.7	343.41	454.62	-325.52	272.52	427.37	-388.95	268.88	441.99	-309.88	347.43	441.24	-421.79	105.12	395.51	-391.3	122.75	316.79	-475.43	71.49	343.83	-462.96	44.664	316.68	-469.76	46.339	377.79	NaN	NaN	NaN	-276.57	45.788	301.83	-211.12	57.278	349.59	-122	705.11	167.77	-2.7504	669.22	189.26	-63.797	636.13	183.81	-56.705	737.55	167.6	-5.8885	560.63	200.62	-2.3535	554.66	326.76	-73.152	392.66	186.33	-15.132	298.5	202.84	-83.406	320.1	196.64	-10.713	374.29	192.32	-79.686	144.99	197.64	-55.727	145.7	284.41	-135.89	114.24	245.39	-121.56	79.447	275.54	-127.59	87.409	211.88	47.116	76.315	181.12	66.141	78.106	295.05	128.96	98.356	247.51	-312.01	1520	358.26	-369.02	1237.4	359.94
